<svg id="visual" viewBox="0 0 900 600" width="900" height="600" xmlns="http://www.w3.org/2000/svg" xmlns:xlink="http://www.w3.org/1999/xlink" version="1.1"><rect x="0" y="0" width="900" height="600" fill="#2b2150"></rect><defs><linearGradient id="grad1_0" x1="33.3%" y1="0%" x2="100%" y2="100%"><stop offset="20%" stop-color="#2b2150" stop-opacity="1"></stop><stop offset="80%" stop-color="#2b2150" stop-opacity="1"></stop></linearGradient></defs><defs><linearGradient id="grad2_0" x1="0%" y1="0%" x2="66.7%" y2="100%"><stop offset="20%" stop-color="#2b2150" stop-opacity="1"></stop><stop offset="80%" stop-color="#2b2150" stop-opacity="1"></stop></linearGradient></defs><g transform="translate(900, 0)"><path d="M0 486.7C-72.1 487.8 -144.1 488.8 -186.3 449.7C-228.4 410.6 -240.7 331.5 -285.7 285.7C-330.6 239.8 -408.2 227.3 -447.2 185.2C-486.1 143.2 -486.4 71.6 -486.7 0L0 0Z" fill="#8a72da"></path></g><g transform="translate(0, 600)"><path d="M0 -486.7C61.4 -475.7 122.8 -464.6 183.7 -443.5C244.5 -422.3 304.8 -391 344.2 -344.2C383.5 -297.3 401.9 -234.9 422.2 -174.9C442.5 -114.9 464.6 -57.5 486.7 0L0 0Z" fill="#8a72da"></path></g></svg>