<svg xmlns="http://www.w3.org/2000/svg" xmlns:xlink="http://www.w3.org/1999/xlink" viewBox="0 0 376.33 362.66"><defs><style>.cls-1{fill:url(#White_Black);}.cls-2{fill:#ffb7ab;}.cls-3{fill:#212126;}.cls-4{fill:#e8670f;}.cls-5{fill:#db5d1d;}.cls-6{mask:url(#mask);}.cls-7,.cls-8{fill:#f9b03d;}.cls-7{opacity:0.42;}.cls-9{fill:#b1bef2;}.cls-10{fill:#fff;}.cls-11{fill:#ec7324;}.cls-12{fill:#628f95;}.cls-13{fill:#04293b;}.cls-14{fill:#e5ecff;}.cls-15{fill:#ffdda3;}.cls-16{fill:#241d1c;}.cls-17{fill:#092e41;}.cls-18{fill:#dd973a;}</style><linearGradient id="White_Black" x1="2163.32" y1="2542.88" x2="2484.53" y2="2542.88" gradientTransform="translate(-2130.41 -2358.03)" gradientUnits="userSpaceOnUse"><stop offset="0" stop-color="#fff"/><stop offset="1"/></linearGradient><mask id="mask" x="-10.28" y="24.24" width="407.59" height="321.22" maskUnits="userSpaceOnUse"><rect class="cls-1" x="32.9" y="-18.95" width="321.22" height="407.59" transform="translate(8.67 378.36) rotate(-90)"/></mask></defs><g id="Layer_2" data-name="Layer 2"><g id="Character_04" data-name="Character 04"><path class="cls-2" d="M100.3,319.87,65.74,348.82h266.5l-31.4-31.4a9.81,9.81,0,0,0-7.09-2.88L108.06,317A12.27,12.27,0,0,0,100.3,319.87Z"/><path class="cls-3" d="M112.2,322.94,94.31,339.86a1.34,1.34,0,0,0,1,2.3H298.25a1.8,1.8,0,0,0,1.57-2.85l-12.58-16.39a7.25,7.25,0,0,0-5.83-2.77L116.35,321.3A6.15,6.15,0,0,0,112.2,322.94Z"/><path class="cls-4" d="M303.2,327.59s-4-1.12-5.73.75,2.29,4.12,4,4.5,4.59-.38,4.59-2.25S303.2,327.59,303.2,327.59Z"/><path class="cls-4" d="M96.83,328.64s-1.61,1.62-1.17,2.94,2.58,0,3.22-.72,1-2.29.14-2.79S96.83,328.64,96.83,328.64Z"/><rect class="cls-4" x="65.74" y="348.82" width="266.5" height="6.85"/><path class="cls-5" d="M69.7,362.66H328.38a3.86,3.86,0,0,0,3.86-3.86v-3.14H65.74v3A4,4,0,0,0,69.7,362.66Z"/><g class="cls-6"><polygon class="cls-7" points="116.38 342.43 0 27.11 376.33 27.11 286.74 342.43 116.38 342.43"/></g><rect class="cls-8" x="229.24" y="153.93" width="4.6" height="16.09" rx="1"/><rect class="cls-8" x="221.36" y="153.93" width="4.6" height="16.09" rx="1"/><rect class="cls-9" x="172.6" y="157.87" width="72.23" height="83.56" rx="9.05"/><path class="cls-10" d="M303.88,157.27c-1.47,4.67-2.6,9.15-3.89,13.24a56.24,56.24,0,0,1-4.37,10.81,19.84,19.84,0,0,1-6,6.72,18.62,18.62,0,0,1-4,2,21,21,0,0,1-4.55,1.24,17.3,17.3,0,0,1-8.58-.9,25.68,25.68,0,0,1-8.37-5.43c-5.41-5-9.93-12.22-13.39-19.81l-.65.24H152.66l-.64-.24c-3.47,7.59-8,14.78-13.39,19.81a25.89,25.89,0,0,1-8.37,5.43,17.34,17.34,0,0,1-8.59.9,20.9,20.9,0,0,1-4.54-1.24,18.7,18.7,0,0,1-4-2,19.82,19.82,0,0,1-6-6.72,55,55,0,0,1-4.37-10.81c-1.29-4.09-2.42-8.57-3.9-13.24l-17.77,4.34c.74,4.41,1.52,9.09,2.66,14A67,67,0,0,0,89.12,191a37.77,37.77,0,0,0,20.8,18.42l1.08.42,1.1.33c.73.21,1.44.46,2.21.62l2.27.51,2.34.36a37.85,37.85,0,0,0,9.63,0,36.52,36.52,0,0,0,9.29-2.55,40.59,40.59,0,0,0,8-4.52,49.68,49.68,0,0,0,6.57-5.77,63,63,0,0,0,9.59-13.25c.78-1.43,1.5-2.88,2.18-4.33v44.29c-13-1.48-30.16-1.19-38.7,8.41-5.49,6.17-7.87,16.81,1.92,28.15l.3.35.33.33c46.39,46.82,106.7,52.34,109.25,52.55l2.22-26.64c-.49,0-46-4.2-84.22-37h.26l-.19-.09a131.73,131.73,0,0,1,48.66-7.8l6.45.39c-.5-.56-1-1.11-1.59-1.64h27.21V175.93h.08a78.62,78.62,0,0,0,4.44,9.68,63.44,63.44,0,0,0,9.6,13.25,49,49,0,0,0,6.57,5.77,40.59,40.59,0,0,0,8.05,4.52,36.44,36.44,0,0,0,9.28,2.55,37.93,37.93,0,0,0,9.64,0l2.33-.36,2.28-.51c.77-.16,1.47-.41,2.21-.62l1.09-.33,1.09-.42A37.8,37.8,0,0,0,313.58,191,66.54,66.54,0,0,0,319,175.63c1.14-4.93,1.92-9.61,2.65-14Z"/><path class="cls-11" d="M225.48,176a2.75,2.75,0,1,1-1.85-3.41A2.74,2.74,0,0,1,225.48,176Z"/><path class="cls-12" d="M216.34,176a2.75,2.75,0,1,1-1.86-3.41A2.76,2.76,0,0,1,216.34,176Z"/><path class="cls-13" d="M207.19,176a2.75,2.75,0,1,1-1.86-3.41A2.75,2.75,0,0,1,207.19,176Z"/><polygon class="cls-10" points="164.23 165.42 163.25 165.42 163.25 170.35 171.18 171.36 164.23 165.42"/><path class="cls-9" d="M220.2,212H179.83a5.09,5.09,0,0,1-5.09-5.09v-19a5.1,5.1,0,0,1,5.09-5.1H220.2a5.11,5.11,0,0,1,5.1,5.1v19A5.1,5.1,0,0,1,220.2,212Zm-40.37-27.57a3.45,3.45,0,0,0-3.45,3.45v19a3.46,3.46,0,0,0,3.45,3.45H220.2a3.46,3.46,0,0,0,3.46-3.45v-19a3.45,3.45,0,0,0-3.46-3.45Z"/><path class="cls-10" d="M246.75,110.22a45.88,45.88,0,0,0-89.54-7.73q-.17.53-.3,1.05a45.88,45.88,0,0,0,87.91,26.19c.11-.35.22-.7.32-1A45.77,45.77,0,0,0,246.75,110.22Z"/><path class="cls-10" d="M253.73,132.57l-8.91-2.84A45.66,45.66,0,0,1,236.4,145l3.24,1c5.17,1.58,10.7-1.71,12.33-7.35Z"/><path class="cls-14" d="M244.82,129.73l8.91,2.84,2.43-8.37c1.63-5.64-1.24-11.49-6.41-13.07l-3-.91a45.77,45.77,0,0,1-1.61,18.46C245,129,244.93,129.38,244.82,129.73Z"/><path class="cls-10" d="M147.68,101l-1.85,6c-1.71,5.61,1.11,11.39,6.31,12.9l3.46,1a45.58,45.58,0,0,1,1.31-17.38Z"/><path class="cls-14" d="M157.21,102.49a45.47,45.47,0,0,1,8.54-16.07,2.54,2.54,0,0,1,.16-.28l-3.17-.92c-5.19-1.51-10.8,1.81-12.51,7.43L147.68,101l9.23,2.56Q157,103,157.21,102.49Z"/><path class="cls-8" d="M237.3,111.33a36.36,36.36,0,0,0-71-6.13q-.14.42-.24.84a36.36,36.36,0,0,0,69.67,20.76c.09-.28.18-.56.26-.84A36.28,36.28,0,0,0,237.3,111.33Z"/><path class="cls-15" d="M231.3,104.18a31.09,31.09,0,0,0-7.16-9.69,32.25,32.25,0,0,0-19.26-8.35c-8-.65-19.37,1-28,12.38A46.42,46.42,0,0,0,171,109.18l0,.06a1.27,1.27,0,0,0,1,1.79,1.25,1.25,0,0,0,1.08-.45c.47-.54,1-1.1,1.49-1.66,6.1-6.54,15.35-14,24.72-12.08a200,200,0,0,1,28.56,8.55l1.89.72a1.16,1.16,0,0,0,.8,0A1.44,1.44,0,0,0,231.3,104.18Z"/><path class="cls-15" d="M222,135a34.94,34.94,0,0,1-6.12,4.79c-.22.16-.45.31-.68.45a15.65,15.65,0,0,1-3.79,1.83,23.05,23.05,0,0,1-12.17.87.6.6,0,0,0,.18.57,13.2,13.2,0,0,0,4.44,2.59,13.76,13.76,0,0,0,8.94.05,13,13,0,0,0,8.89-9.55A15.12,15.12,0,0,0,222,135Z"/><path class="cls-16" d="M214.26,115.19c3-1.16,4.84-3.44,5.1-5.82s1-6.78-1-9-4.15-3-10.5-3.46l-3.41-.19c.1-2.18.21-4.57.26-5.76l-3.53-.24c-.12,1.21-.28,3.28-.47,5.8l-3.56-.18c.1-2.23.21-4.67.27-5.88l-3.54-.24c-.12,1.23-.28,3.35-.48,5.92l-4.56-.23-.45,4.25c1.34.15,3,.32,4.68.48-.58,8.09-1.25,17.84-1.5,20.17-.15,1.4-.4,4.2-.66,7.14l-5.45-.37-.51,4.71c1.5.07,3.55.17,5.56.29-.23,2.63-.68,5.26-.82,6l4.1.28.65-6c1.11.1,2,.2,2.52.3.24.05.52.1.83.14-.22,2.53-.44,5.07-.51,5.82l3.81.26.61-5.75c2.44.14,5,.2,6,.27,1.9.13,8.14,0,9.38-1.07s2.58-3.25,3.27-9.71C220.81,119.75,218.88,116.88,214.26,115.19Zm-17.48-12.84c.05-.41.09-.87.13-1.36h0c.95.06,2.15.08,3.49.08-.27,3.7-.56,7.76-.81,11.29l-3.54-.14C196.36,107.77,196.62,103.85,196.78,102.35Zm-1.83,26c.22-2.46.53-7,.83-11.68l3.5.17c-.16,2.11-.29,3.73-.37,4.51-.16,1.45-.42,4.37-.69,7.4Zm9.13-25.48c0-.53.11-1.14.16-1.81,4.09-.05,7.73-.12,9.57.42,1.55.45,1.86,3.55,1.64,5.59s-.58,5.44-3.47,5.59c-1.39.07-4.79,0-8.6-.14C203.66,108.15,203.92,104.33,204.08,102.85Zm9,26.65c-1.8.15-7.82-.21-10.82-.4.22-2.42.54-7.2.85-12.07,3.77.22,7.63.5,8.67.73,2.19.49,4.09.62,4,4.38S215.31,129.31,213.05,129.5Z"/><rect class="cls-11" x="206.22" y="65.42" width="15.86" height="4.76" transform="translate(88.04 253.68) rotate(-73.41)"/><path class="cls-10" d="M224.68,61.06a8,8,0,1,1-5.37-9.93A8,8,0,0,1,224.68,61.06Z"/><path class="cls-14" d="M154.16,291.09,159,312.72a3,3,0,0,0,3.34,2.34c12.62-1.58,65.11-10.47,106.51-52.25l.25-.25.14-.16.23-.27c9.86-11.43,7.5-22.1,2-28.28-8.54-9.6-25.58-9.76-38.37-8.21-14.45,1.75-28.36,6.29-38.73,12.57a3,3,0,0,0-.93,4.28h0a3,3,0,0,0,2.59,1.33c13.76-.46,29.62,1.23,45.32,7.79l-.25.14.44,0c-18.31,15.69-38.16,24.63-52.43,29.52a303.62,303.62,0,0,1-33.71,9.44"/><path class="cls-10" d="M150.8,319.77l3.2-1.33,0,0,10.25-4.31-9.62-22.91L145,295.25,142,287.74A10.29,10.29,0,0,0,128.48,282l-9.27,3.88v0L135,326.36Z"/><polygon class="cls-10" points="128.5 309.67 124.37 311.22 126.02 315.46 130.16 313.91 128.5 309.67"/><polygon class="cls-10" points="126.3 304.04 122.17 305.59 123.77 309.7 127.91 308.15 126.3 304.04"/><polygon class="cls-10" points="130.75 315.43 126.61 316.98 128.49 321.77 132.62 320.22 130.75 315.43"/><polygon class="cls-10" points="119.22 285.9 115.11 287.52 117.19 292.85 121.32 291.3 119.22 285.9"/><polygon class="cls-10" points="130.93 328.01 135.02 326.37 133.22 321.74 129.08 323.29 130.93 328.01"/><polygon class="cls-10" points="124.11 298.43 119.97 299.98 121.57 304.07 125.71 302.52 124.11 298.43"/><polygon class="cls-10" points="121.92 292.82 117.78 294.37 119.38 298.46 123.52 296.91 121.92 292.82"/><polygon class="cls-13" points="121.32 291.3 117.19 292.85 117.78 294.37 121.92 292.82 121.32 291.3"/><path class="cls-17" d="M117.65,294.67l-.76-1.95,4.57-1.72.76,1.95Zm-.16-1.69.42,1.09,3.7-1.39-.42-1.08Z"/><polygon class="cls-13" points="123.52 296.91 119.38 298.46 119.97 299.98 124.11 298.43 123.52 296.91"/><path class="cls-17" d="M119.84,300.28l-.76-1.95,4.57-1.72.76,1.95Zm-.16-1.68.43,1.08,3.7-1.39-.43-1.08Z"/><polygon class="cls-13" points="125.71 302.52 121.57 304.07 122.17 305.59 126.3 304.04 125.71 302.52"/><path class="cls-17" d="M122,305.89l-.76-1.95,4.57-1.72.76,2Zm-.15-1.68.42,1.08,3.7-1.38-.42-1.09Z"/><polygon class="cls-13" points="127.91 308.15 123.77 309.7 124.37 311.22 128.5 309.67 127.91 308.15"/><path class="cls-17" d="M124.23,311.52l-.76-1.95,4.57-1.72.76,1.95Zm-.15-1.68.42,1.08,3.7-1.39-.43-1.08Z"/><polygon class="cls-13" points="130.16 313.91 126.02 315.46 126.61 316.98 130.75 315.43 130.16 313.91"/><path class="cls-17" d="M126.48,317.28l-.76-2,4.57-1.71.76,1.95Zm-.16-1.69.43,1.09,3.7-1.39-.43-1.08Z"/><polygon class="cls-13" points="133.22 321.74 132.62 320.22 128.49 321.77 129.08 323.29 133.22 321.74"/><path class="cls-17" d="M129,323.59l-.76-1.95,4.57-1.72.76,1.95Zm-.16-1.68.42,1.08,3.7-1.39-.42-1.08Z"/><path class="cls-9" d="M162.81,317.32a2.86,2.86,0,0,1-2.64-1.76l-9.55-23a2.85,2.85,0,1,1,5.26-2.19l9.56,23a2.86,2.86,0,0,1-2.63,3.95Z"/><path class="cls-12" d="M144.89,315.21a2,2,0,1,1,1.86-2.1A2,2,0,0,1,144.89,315.21Z"/><path class="cls-13" d="M151,312.5a2,2,0,1,1,1.85-2.09A2,2,0,0,1,151,312.5Z"/><path class="cls-11" d="M139.21,317.65a2,2,0,1,1,1.85-2.1A2,2,0,0,1,139.21,317.65Z"/><path class="cls-10" d="M244.11,319l-3.2-1.33,0-.05-10.25-4.3,9.62-22.91,9.66,4.06,2.93-7.51a10.3,10.3,0,0,1,13.54-5.73l9.27,3.87v0l-15.8,40.46Z"/><polygon class="cls-10" points="266.41 308.85 270.54 310.4 268.89 314.64 264.75 313.08 266.41 308.85"/><polygon class="cls-10" points="268.61 303.22 272.74 304.77 271.14 308.88 267 307.33 268.61 303.22"/><polygon class="cls-10" points="264.16 314.6 268.3 316.15 266.42 320.95 262.29 319.4 264.16 314.6"/><polygon class="cls-10" points="275.69 285.08 279.8 286.7 277.72 292.03 273.58 290.48 275.69 285.08"/><polygon class="cls-10" points="263.98 327.19 259.88 325.54 261.69 320.92 265.83 322.47 263.98 327.19"/><polygon class="cls-10" points="270.8 297.61 274.94 299.16 273.33 303.25 269.2 301.7 270.8 297.61"/><polygon class="cls-10" points="272.99 291.99 277.13 293.55 275.53 297.64 271.39 296.09 272.99 291.99"/><polygon class="cls-13" points="273.58 290.48 277.72 292.03 277.13 293.55 272.99 291.99 273.58 290.48"/><path class="cls-17" d="M277.26,293.84l-4.57-1.71.76-1.95,4.57,1.71Zm-4-2,3.7,1.39.43-1.09-3.7-1.39Z"/><polygon class="cls-13" points="271.39 296.09 275.53 297.64 274.94 299.16 270.8 297.61 271.39 296.09"/><path class="cls-17" d="M275.07,299.46l-4.57-1.72.76-1.95,4.57,1.72Zm-4-2,3.7,1.39.43-1.09-3.7-1.38Z"/><polygon class="cls-13" points="269.2 301.7 273.33 303.25 272.74 304.77 268.61 303.22 269.2 301.7"/><path class="cls-17" d="M272.87,305.07l-4.57-1.72.77-2,4.57,1.72Zm-4-2,3.7,1.39.42-1.08-3.7-1.39Z"/><polygon class="cls-13" points="267 307.33 271.14 308.88 270.54 310.4 266.41 308.85 267 307.33"/><path class="cls-17" d="M270.68,310.7,266.11,309l.76-2,4.57,1.72Zm-4-2,3.7,1.39.42-1.09-3.7-1.38Z"/><polygon class="cls-13" points="264.75 313.08 268.89 314.64 268.3 316.15 264.16 314.6 264.75 313.08"/><path class="cls-17" d="M268.43,316.45l-4.57-1.71.76-1.95,4.57,1.71Zm-4-2,3.7,1.39.43-1.09-3.7-1.39Z"/><polygon class="cls-13" points="261.69 320.92 262.29 319.4 266.42 320.95 265.83 322.47 261.69 320.92"/><path class="cls-17" d="M266,322.77l-4.57-1.72.76-1.95,4.57,1.72Zm-4-2,3.7,1.39.43-1.08-3.7-1.39Z"/><path class="cls-9" d="M232.1,316.5a2.79,2.79,0,0,1-1.09-.22,2.84,2.84,0,0,1-1.54-3.73l9.56-23a2.85,2.85,0,0,1,5.26,2.2l-9.55,23A2.86,2.86,0,0,1,232.1,316.5Z"/><path class="cls-12" d="M250,314.38a2,2,0,0,0,.24-3.95,2,2,0,1,0-.24,3.95Z"/><path class="cls-13" d="M243.88,311.68a2,2,0,1,0,.24-3.95,2,2,0,0,0-.24,3.95Z"/><path class="cls-11" d="M255.7,316.83a2,2,0,1,0-1.86-2.1A2,2,0,0,0,255.7,316.83Z"/><path class="cls-8" d="M97.58,129.9H87.76a.65.65,0,0,0-.64.65v6.12a.64.64,0,0,0,.64.64H90a.65.65,0,0,1,.65.65v3.19a.65.65,0,0,1-.65.64H82.72a.65.65,0,0,1-.63-.8l3.32-13.47a.65.65,0,0,0-.47-.78L77.87,125a.63.63,0,0,0-.78.47l-.6,2.41a.61.61,0,0,1-.18.31l-6.59,21.62,11,13.84a.64.64,0,0,0,.71.21l16.41-5.47a.65.65,0,0,0,.44-.61V130.55A.65.65,0,0,0,97.58,129.9Z"/><path class="cls-18" d="M75.71,128.35l-5.25-1.29a.64.64,0,0,0-.78.47l-4.1,16.67-.26.06,4.4,5.55,6.59-21.62A.67.67,0,0,1,75.71,128.35Z"/><path class="cls-10" d="M75,169.51a3.59,3.59,0,0,1-.72-7.11l28.23-5.76a3.59,3.59,0,0,1,1.43,7l-28.22,5.76A3.58,3.58,0,0,1,75,169.51Z"/><path class="cls-9" d="M83.59,168.69a.79.79,0,0,1-.16-1.56l11.87-2.62a.79.79,0,0,1,.34,1.55l-11.87,2.62Z"/><path class="cls-11" d="M81.59,156.39a3.45,3.45,0,0,1-1.33-.28,3.37,3.37,0,0,1-1.75-4.41,3.36,3.36,0,0,1,6.2.09,3.36,3.36,0,0,1-3.12,4.6Zm0-5.13a1.82,1.82,0,0,0-.65.12,1.76,1.76,0,0,0-1,1,1.77,1.77,0,0,0,.93,2.33,1.77,1.77,0,0,0,2.33-.93,1.78,1.78,0,0,0-.93-2.33A1.68,1.68,0,0,0,81.59,151.26Z"/><path class="cls-8" d="M304.58,126.2h9.82a.65.65,0,0,1,.64.65V133a.64.64,0,0,1-.64.64h-2.19a.64.64,0,0,0-.64.64v3.2a.64.64,0,0,0,.64.64h7.24a.64.64,0,0,0,.62-.8l-3.32-13.47a.65.65,0,0,1,.48-.78l7.07-1.74a.64.64,0,0,1,.78.47l.59,2.41a.61.61,0,0,0,.18.31l6.6,21.62-11,13.84a.66.66,0,0,1-.71.21l-16.4-5.47a.63.63,0,0,1-.44-.61V126.85A.64.64,0,0,1,304.58,126.2Z"/><path class="cls-18" d="M326.45,124.65l5.25-1.3a.65.65,0,0,1,.78.48l4.1,16.67.26.06-4.39,5.55-6.6-21.62A.68.68,0,0,0,326.45,124.65Z"/><path class="cls-10" d="M327.17,165.81a3.68,3.68,0,0,1-.73-.07L298.22,160a3.59,3.59,0,0,1,1.43-7l28.23,5.76a3.59,3.59,0,0,1-.71,7.11Z"/><path class="cls-9" d="M318.57,165a.47.47,0,0,1-.17,0l-11.87-2.62a.78.78,0,0,1-.6-.94.79.79,0,0,1,.94-.6l11.87,2.62a.8.8,0,0,1,.6.94A.79.79,0,0,1,318.57,165Z"/><path class="cls-11" d="M320.57,152.68a3.32,3.32,0,0,1-1.24-.23,3.35,3.35,0,0,1-.09-6.2,3.36,3.36,0,0,1,4.45,4.32,3.36,3.36,0,0,1-1.79,1.84A3.44,3.44,0,0,1,320.57,152.68Zm0-5.13a1.69,1.69,0,0,0-.7.15,1.78,1.78,0,0,0,0,3.28,1.78,1.78,0,1,0,.66-3.43Z"/><circle class="cls-16" cx="138.53" cy="40.92" r="19.74"/><circle class="cls-8" cx="141" cy="37.43" r="19.74" transform="translate(-4.88 37.38) rotate(-14.85)"/><path class="cls-16" d="M141,52.23a14.81,14.81,0,1,1,14.81-14.8A14.83,14.83,0,0,1,141,52.23Zm0-27.55a12.75,12.75,0,1,0,12.75,12.75A12.76,12.76,0,0,0,141,24.68Z"/><circle class="cls-16" cx="201.05" cy="23.24" r="19.74"/><circle class="cls-8" cx="203.52" cy="19.74" r="19.74" transform="translate(137.54 213.28) rotate(-76.72)"/><path class="cls-16" d="M203.52,34.55a14.81,14.81,0,1,1,14.8-14.81A14.82,14.82,0,0,1,203.52,34.55Zm0-27.56a12.75,12.75,0,1,0,12.75,12.75A12.76,12.76,0,0,0,203.52,7Z"/><circle class="cls-16" cx="268.09" cy="47.5" r="19.74" transform="translate(44.93 203.48) rotate(-45)"/><circle class="cls-8" cx="270.56" cy="44.01" r="19.74"/><path class="cls-16" d="M270.56,58.81A14.81,14.81,0,1,1,285.36,44,14.82,14.82,0,0,1,270.56,58.81Zm0-27.55A12.75,12.75,0,1,0,283.31,44,12.76,12.76,0,0,0,270.56,31.26Z"/><circle class="cls-16" cx="306.34" cy="95.21" r="19.74"/><circle class="cls-8" cx="308.81" cy="91.72" r="19.74" transform="translate(148.59 371.19) rotate(-76.72)"/><path class="cls-16" d="M308.81,106.52a14.81,14.81,0,1,1,14.8-14.8A14.82,14.82,0,0,1,308.81,106.52Zm0-27.55a12.75,12.75,0,1,0,12.75,12.75A12.76,12.76,0,0,0,308.81,79Z"/><path class="cls-16" d="M312.53,91.64a2.56,2.56,0,0,0,1.74-2c.08-.81.35-2.31-.33-3.06s-1.41-1-3.57-1.17l-1.16-.07c0-.74.07-1.55.09-2l-1.21-.08c0,.41-.09,1.12-.16,2l-1.21-.06c0-.76.07-1.59.09-2l-1.2-.08c0,.42-.1,1.14-.16,2l-1.56-.08-.15,1.45,1.59.16c-.19,2.76-.42,6.07-.51,6.87-.05.47-.13,1.43-.22,2.43l-1.86-.13-.17,1.6,1.89.1a20.24,20.24,0,0,1-.28,2l1.4.1.22-2c.38,0,.68.07.86.1l.28,0c-.08.86-.15,1.72-.17,2l1.29.09.21-2c.83,0,1.69.07,2.06.09.65,0,2.77,0,3.19-.36s.88-1.11,1.11-3.31C314.76,93.19,314.1,92.21,312.53,91.64Zm-5.95-4.37c0-.14,0-.3.05-.47h0c.33,0,.74,0,1.19,0-.09,1.26-.19,2.64-.27,3.84l-1.21,0C306.44,89.11,306.53,87.78,306.58,87.27ZM306,96.11c.08-.84.18-2.39.28-4l1.19.06c-.05.72-.1,1.27-.12,1.54-.06.49-.15,1.48-.24,2.51Zm3.11-8.67c0-.18,0-.39.05-.62a14.86,14.86,0,0,1,3.26.14c.53.15.63,1.21.56,1.91s-.2,1.85-1.19,1.9c-.47,0-1.63,0-2.92,0C308.92,89.24,309,87.94,309.07,87.44Zm3.05,9.06c-.61.06-2.66-.07-3.68-.13.07-.82.18-2.45.29-4.11,1.28.08,2.59.17,2.95.25.74.17,1.39.21,1.36,1.49S312.89,96.44,312.12,96.5Z"/><path class="cls-16" d="M308.15,100l-1.5-.1,0-.21c0-.32.09-1,.16-1.78l-.19,0q-.22,0-.75-.09l-.22,2-1.61-.11,0-.12c0-.17.19-1,.27-1.93l-1.78-.09h-.11l.19-1.81,1.85.13c.11-1.19.18-1.94.22-2.33.07-.62.22-2.75.38-5l.13-1.76-1.5-.16h-.1L303.8,85l1.55.08c.07-.89.12-1.54.16-1.92V83l1.4.1v.22c0,.42-.05,1.12-.08,1.77l1,.05c.06-.84.11-1.49.15-1.87v-.1l1.4.09v.11c0,.38,0,1.14-.09,1.85l1.06.06c2.1.15,2.92.42,3.65,1.21s.48,2,.38,2.86l0,.28a2.58,2.58,0,0,1-1.57,2,2.65,2.65,0,0,1,1.94,2.72c-.25,2.3-.75,3-1.15,3.37s-2.71.44-3.27.4c-.18,0-.47,0-.81,0l-1.15,0Zm-1.27-.3,1.09.08.21-2h.1l1.23.05.82,0c.74,0,2.75,0,3.12-.34s.85-1,1.08-3.24c.13-1.17-.58-2.07-2-2.6l-.26-.09.25-.1a2.43,2.43,0,0,0,1.67-1.9c0-.08,0-.17,0-.27.09-.82.24-2.07-.34-2.7s-1.44-1-3.5-1.14l-1.16-.07h-.1v-.1c0-.69.07-1.43.09-1.86l-1-.07c0,.4-.09,1-.15,1.87v.1l-1.42-.07v-.11c0-.68.07-1.43.08-1.87v0l-1-.07c0,.4-.09,1-.15,1.91v.1L304,85.19l-.14,1.25,1.49.15h.1l-.14,2c-.16,2.26-.31,4.39-.37,5-.05.4-.12,1.18-.23,2.43v.1L302.83,96l-.14,1.4,1.78.09h.1v.1c-.07.82-.2,1.63-.26,2l1.19.08.22-2h.1a8.56,8.56,0,0,1,.87.1l.27,0h.1v.1C307,98.59,306.91,99.35,306.88,99.69Zm4.82-3.07c-.83,0-2.34-.09-3.27-.15h-.11v-.1c.08-.82.19-2.46.29-4.1v-.11h.1c1.67.1,2.67.18,3,.25l.15,0c.68.15,1.32.29,1.29,1.56s-.13,2.53-1,2.61h-.43Zm-3.15-.35c.95.06,3,.18,3.56.13s.8-1.19.83-2.4-.46-1.21-1.13-1.36l-.16,0c-.28-.06-1.23-.14-2.83-.24C308.72,93.92,308.62,95.44,308.55,96.27Zm-1.38.09h-.11L306,96.21h-.1v-.1c.07-.83.17-2.35.28-4V92h.1l1.19.06h.1v.11c-.06.76-.1,1.28-.13,1.54-.05.43-.13,1.32-.23,2.51Zm-1.1-.34.91.11c.07-.83.17-1.88.22-2.41,0-.24.07-.74.12-1.43l-1-.05C306.24,93.76,306.14,95.19,306.07,96Zm5.16-5.14c-.71,0-1.75,0-2.41-.06h-.1v-.1c.1-1.63.18-2.82.23-3.3h0c0-.17,0-.38.06-.61v-.09h.31a13.9,13.9,0,0,1,3.08.14c.6.18.71,1.3.63,2s-.21,1.94-1.28,2Zm-2.29-.26c1.39,0,2.39.06,2.81,0,.83,0,1-.91,1.08-1.81.08-.66,0-1.66-.48-1.79a13.23,13.23,0,0,0-3-.14h-.11c0,.19,0,.37-.05.53h0C309.12,87.91,309,89.05,308.94,90.62Zm-1.3.16-1.41-.06v-.1c.09-1.44.18-2.83.24-3.37h0c0-.13,0-.29,0-.46V86.7h.1c.29,0,.67,0,1.19,0h.11Zm-1.19-.25,1,0,.26-3.64c-.42,0-.74,0-1,0,0,.13,0,.26,0,.37h0C306.63,87.79,306.54,89.13,306.45,90.53Z"/><circle class="cls-16" cx="95.35" cy="92.33" r="19.74" transform="translate(-37.36 94.46) rotate(-45)"/><circle class="cls-8" cx="97.81" cy="88.84" r="19.74"/><path class="cls-16" d="M97.81,103.65a14.81,14.81,0,1,1,14.81-14.81A14.83,14.83,0,0,1,97.81,103.65Zm0-27.56a12.75,12.75,0,1,0,12.75,12.75A12.76,12.76,0,0,0,97.81,76.09Z"/><path class="cls-16" d="M101.13,89.17a2.52,2.52,0,0,0,1.73-2c.09-.81.36-2.31-.32-3.06s-1.42-1-3.58-1.17l-1.16-.07c0-.74.07-1.55.09-2l-1.2-.08c0,.41-.1,1.12-.16,2l-1.21-.07c0-.75.07-1.58.09-2l-1.2-.08c0,.42-.1,1.14-.17,2l-1.55-.08-.15,1.44,1.59.17c-.2,2.75-.43,6.07-.51,6.86,0,.48-.14,1.43-.23,2.43l-1.85-.12L91.17,95c.51,0,1.21,0,1.89.1-.08.89-.23,1.78-.28,2.05l1.4.09.22-2c.37,0,.68.07.85.1l.28,0c-.07.86-.15,1.73-.17,2l1.3.09.21-2c.83,0,1.69.07,2,.1.65,0,2.78,0,3.2-.37s.88-1.1,1.11-3.3C103.35,90.72,102.7,89.74,101.13,89.17ZM95.18,84.8c0-.14,0-.3,0-.47h0c.32,0,.73,0,1.19,0-.09,1.26-.19,2.64-.28,3.85l-1.2,0C95,86.64,95.12,85.31,95.18,84.8Zm-.62,8.84c.07-.84.18-2.39.28-4l1.19.06c0,.72-.1,1.27-.13,1.54-.05.49-.14,1.48-.23,2.52ZM97.66,85c0-.18,0-.39.06-.62a15.52,15.52,0,0,1,3.26.14c.52.16.63,1.21.55,1.91s-.19,1.85-1.18,1.9c-.47,0-1.63,0-2.93,0C97.52,86.77,97.61,85.47,97.66,85ZM100.72,94c-.62,0-2.67-.07-3.69-.14.08-.82.19-2.45.29-4.11,1.28.08,2.6.17,3,.25.75.17,1.39.21,1.37,1.49S101.48,94,100.72,94Z"/><path class="cls-16" d="M96.75,97.52l-1.5-.1v-.11l.16-1.88-.19,0a6.33,6.33,0,0,0-.74-.1l-.22,2-1.61-.11,0-.11c0-.32.19-1.13.27-1.94l-1.79-.09h-.11l.2-1.8,1.85.12c.1-1.17.17-1.93.22-2.33.06-.62.22-2.77.38-5l.12-1.72-1.49-.15-.11,0,.18-1.64,1.55.08c.07-1,.12-1.56.15-1.92v-.1l1.41.1v.19c0,.41-.05,1.13-.09,1.8l1,.06c.07-.88.12-1.51.16-1.88v-.1l1.4.1v.1c0,.38,0,1.14-.08,1.86.54,0,.93,0,1.06.06,2.1.14,2.92.41,3.64,1.21s.49,2,.39,2.86c0,.09,0,.19,0,.27a2.54,2.54,0,0,1-1.56,2,2.63,2.63,0,0,1,1.93,2.73c-.24,2.29-.74,3-1.14,3.37s-2.71.43-3.27.39l-.82,0-1.14,0Zm-1.28-.29,1.1.07.21-2h.09l1.24.06.82,0c.74,0,2.75,0,3.12-.34s.84-1,1.08-3.23c.12-1.17-.58-2.07-2-2.61l-.25-.09.25-.1a2.43,2.43,0,0,0,1.67-1.89l0-.28c.1-.82.25-2.06-.33-2.7s-1.44-1-3.5-1.14L97.8,83h-.11v-.1c0-.69.07-1.43.08-1.86l-1-.07c0,.39-.09,1-.15,1.87v.1l-1.41-.07v-.1c0-.7.07-1.46.09-1.9l-1-.07c0,.38-.08,1-.15,1.91v.1l-1.56-.08L92.45,84l1.49.15H94l-.14,1.93c-.16,2.27-.31,4.42-.38,5,0,.41-.12,1.21-.22,2.43v.1l-1.86-.13-.15,1.4,1.78.09h.11v.1c-.06.77-.19,1.56-.26,2l1.18.08.22-2h.1c.42,0,.71.07.87.1l.28,0h.1v.1Zm4.83-3.08c-.84,0-2.35-.09-3.27-.15h-.11v-.11c.08-.82.18-2.45.29-4.1v-.1h.1c1.67.1,2.67.18,3,.25l.15,0c.68.15,1.32.29,1.29,1.57s-.13,2.52-1,2.6h-.43Zm-3.16-.35c1,.06,3,.18,3.57.13s.8-1.18.82-2.4-.46-1.21-1.13-1.35l-.15,0C100,90.08,99,90,97.42,89.9,97.32,91.45,97.22,93,97.14,93.8Zm-1.38.09h-.1l-1.12-.14h-.09v-.1c.08-.82.18-2.35.29-4v-.1h.1l1.2.06h.1v.1L96,91.27c-.05.42-.13,1.25-.24,2.52Zm-1.09-.34.91.11c.1-1.21.18-2,.22-2.41,0-.24.07-.73.12-1.43l-1,0C94.83,91.3,94.74,92.72,94.67,93.55Zm5.16-5.14c-.72,0-1.76,0-2.41,0h-.11v-.1c.1-1.44.19-2.78.24-3.29h0c0-.18,0-.39,0-.62v-.09h.31a13.09,13.09,0,0,1,3.07.15c.61.17.71,1.29.64,2s-.21,1.94-1.28,2Zm-2.3-.26c1.4,0,2.4.07,2.82,0,.89,0,1-1.11,1.08-1.81s0-1.67-.48-1.8a14.62,14.62,0,0,0-3-.14h-.12c0,.2,0,.37,0,.53h0C97.71,85.48,97.63,86.76,97.53,88.15Zm-1.29.16-1.41,0v-.11c.12-1.72.19-2.88.25-3.36h0c0-.14,0-.3,0-.46v-.1h.09c.3,0,.68,0,1.2,0h.11Zm-1.19-.25,1,0,.26-3.63c-.42,0-.74,0-1,0,0,.13,0,.26,0,.37h0C95.23,85.33,95.13,86.74,95.05,88.06Z"/><path class="cls-16" d="M274.28,43.93A2.56,2.56,0,0,0,276,42c.08-.81.35-2.31-.33-3.06s-1.41-1-3.57-1.17L271,37.65c0-.74.07-1.55.09-2l-1.21-.08c0,.41-.09,1.12-.16,2l-1.21-.06c0-.76.07-1.59.09-2l-1.2-.08c0,.42-.1,1.14-.16,2l-1.56-.08-.15,1.45,1.59.16c-.19,2.76-.42,6.07-.51,6.87-.05.48-.13,1.43-.22,2.43l-1.86-.13-.17,1.6,1.89.1a20.24,20.24,0,0,1-.28,2l1.4.1.22-2c.38,0,.68.07.86.1l.28.05c-.08.86-.15,1.72-.17,2l1.29.09.21-2c.83,0,1.69.07,2.06.09.65.05,2.77,0,3.19-.36s.88-1.11,1.11-3.31C276.51,45.48,275.85,44.5,274.28,43.93Zm-5.95-4.37c0-.14,0-.3.05-.47h0c.33,0,.74,0,1.19,0-.09,1.26-.19,2.64-.27,3.84l-1.21-.05C268.19,41.4,268.28,40.07,268.33,39.56Zm-.62,8.84c.08-.84.18-2.39.28-4l1.19.06c-.05.72-.1,1.27-.12,1.54-.06.49-.15,1.48-.24,2.51Zm3.11-8.67c0-.18,0-.39.05-.62a14.86,14.86,0,0,1,3.26.14c.53.16.63,1.21.56,1.91s-.2,1.85-1.19,1.9c-.47,0-1.63,0-2.92-.05C270.67,41.53,270.76,40.23,270.82,39.73Zm3.05,9.06c-.61.06-2.66-.07-3.68-.13.07-.82.18-2.45.29-4.11,1.28.08,2.59.17,2.95.25.74.17,1.39.21,1.36,1.49S274.64,48.73,273.87,48.79Z"/><path class="cls-16" d="M269.9,52.28l-1.5-.1,0-.24.15-1.75-.19,0a7.28,7.28,0,0,0-.75-.09l-.22,2L265.81,52l0-.12c0-.17.19-1,.27-1.93l-1.78-.09h-.11L264.4,48l1.85.13c.11-1.19.18-1.94.22-2.33.07-.62.22-2.75.38-5l.13-1.76-1.5-.16h-.1l.17-1.64,1.55.08c.07-.89.12-1.54.16-1.92v-.1l1.4.1v.22c0,.42-.05,1.12-.08,1.77l1,.06c.06-.85.11-1.5.15-1.88v-.1l1.4.09v.11c0,.38,0,1.14-.09,1.85l1.06.06c2.1.15,2.92.42,3.65,1.21s.48,2,.38,2.86l0,.28a2.58,2.58,0,0,1-1.57,2,2.66,2.66,0,0,1,1.94,2.73c-.25,2.29-.75,3-1.15,3.37s-2.71.43-3.27.39c-.17,0-.46,0-.79,0l-1.17,0Zm-1.27-.3,1.09.08.21-2h.1l1.25,0,.8,0c.75,0,2.75,0,3.12-.34s.85-1,1.08-3.24c.13-1.17-.58-2.06-2-2.6l-.26-.09.25-.1a2.43,2.43,0,0,0,1.67-1.89c0-.09,0-.18,0-.28.09-.82.24-2.07-.34-2.7s-1.44-1-3.5-1.14L271,37.75h-.1v-.1c0-.69.07-1.43.09-1.86l-1-.07c0,.4-.09,1.05-.15,1.87v.1l-1.42-.07v-.11c0-.68.07-1.43.08-1.87v0l-1-.07c0,.4-.09,1.06-.15,1.91v.1l-1.55-.08-.14,1.25,1.49.15h.1l-.14,2c-.16,2.25-.31,4.38-.37,5-.05.41-.12,1.18-.23,2.43v.1l-1.86-.13-.14,1.4,1.78.09h.1v.1c-.07.82-.2,1.63-.26,2l1.19.08.22-2h.1a8.56,8.56,0,0,1,.87.1l.27,0h.1v.1c-.06.74-.13,1.49-.16,1.84Zm4.83-3.07c-.84,0-2.35-.09-3.28-.15h-.11v-.1c.08-.82.19-2.46.29-4.1v-.11h.1c1.67.1,2.67.18,3,.25l.15,0c.68.15,1.32.29,1.29,1.56s-.13,2.53-1,2.61h-.42Zm-3.16-.35c1.13.08,3,.18,3.56.13h0c.68,0,.8-1.19.83-2.4s-.46-1.21-1.13-1.36l-.16,0c-.28-.06-1.26-.15-2.83-.24C270.47,46.21,270.37,47.73,270.3,48.56Zm-1.38.09h-.11l-1.11-.14h-.1v-.1c.07-.83.17-2.35.28-4v-.11h.1l1.19.06h.1v.11c-.06.77-.1,1.28-.13,1.54-.06.55-.16,1.67-.23,2.51Zm-1.1-.34.91.11c.07-.83.17-1.88.22-2.41,0-.25.07-.72.12-1.43l-1,0C268,46.05,267.89,47.48,267.82,48.31ZM273,43.17c-.71,0-1.75,0-2.4-.06h-.1V43c.1-1.63.18-2.81.23-3.3h0c0-.17,0-.38.06-.61V39h.3a14,14,0,0,1,3.09.14c.6.18.7,1.3.63,2s-.21,1.94-1.28,2Zm-2.28-.26c1.37.05,2.39.06,2.81,0,.9,0,1-1.1,1.08-1.8s0-1.67-.48-1.8a14,14,0,0,0-3-.14H271c0,.19,0,.37-.05.53h0C270.87,40.2,270.79,41.34,270.69,42.91Zm-1.3.16h-.1l-1.21,0H268v-.1c.09-1.44.18-2.83.24-3.37h0c0-.13,0-.29,0-.46V39l.12,0c.27,0,.65,0,1.17,0h.11v.11c-.06.89-.13,1.84-.19,2.75Zm-1.19-.25,1,0,.07-1c.06-.87.13-1.78.19-2.64-.42,0-.74,0-1,0,0,.13,0,.26,0,.37h0C268.38,40.08,268.29,41.42,268.2,42.82Z"/><path class="cls-16" d="M145.14,38.17a2.54,2.54,0,0,0,1.73-2c.09-.81.36-2.31-.33-3.06s-1.41-1-3.57-1.17l-1.16-.07c0-.74.07-1.55.09-2l-1.2-.08c0,.41-.1,1.12-.16,2l-1.21-.06c0-.75.07-1.58.09-2l-1.21-.08c0,.42-.09,1.14-.16,2l-1.55-.08-.16,1.44,1.6.17c-.2,2.75-.43,6.07-.51,6.86-.05.48-.14,1.43-.23,2.43l-1.85-.13L135.18,44c.51,0,1.2,0,1.89.1-.08.89-.24,1.78-.28,2l1.39.1.22-2.05c.38,0,.69.07.86.1l.28.05c-.07.86-.15,1.73-.17,2l1.3.09.21-2c.83,0,1.68.07,2.05.1.65,0,2.77,0,3.2-.37s.87-1.1,1.11-3.3C147.36,39.72,146.71,38.74,145.14,38.17Zm-5.95-4.37c0-.14,0-.3,0-.47h0c.32,0,.73,0,1.18,0-.09,1.26-.18,2.64-.27,3.85l-1.21-.05C139,35.64,139.13,34.31,139.19,33.8Zm-.62,8.84c.07-.84.17-2.39.28-4l1.19.06c-.06.72-.1,1.27-.13,1.54,0,.49-.14,1.48-.23,2.52Zm3.1-8.67c0-.18,0-.39.05-.62a15.44,15.44,0,0,1,3.26.14c.53.16.64,1.21.56,1.91s-.2,1.85-1.18,1.9c-.47,0-1.63,0-2.93,0C141.53,35.77,141.62,34.47,141.67,34ZM144.72,43c-.61.05-2.66-.07-3.68-.14.08-.82.18-2.45.29-4.11,1.28.08,2.6.17,2.95.25.75.17,1.39.21,1.36,1.49S145.49,43,144.72,43Z"/><path class="cls-16" d="M140.76,46.52l-1.5-.1,0-.25c0-.34.09-1,.15-1.74l-.19,0a6.33,6.33,0,0,0-.74-.1l-.22,2.05-1.62-.11,0-.11c0-.17.18-1,.26-1.94l-1.78-.09h-.11l.2-1.8,1.85.12c.1-1.17.17-1.94.22-2.33.06-.61.21-2.71.37-4.93l.13-1.83-1.5-.15-.1,0,.18-1.64,1.55.08c.06-.89.12-1.54.15-1.92v-.1l1.4.1v.22c0,.42,0,1.12-.08,1.77l1,.06c.07-.93.12-1.53.16-1.88v-.1l1.4.1v.1c0,.38-.05,1.14-.08,1.86.54,0,.93.05,1.06.06,2.1.14,2.91.41,3.64,1.21s.49,2,.38,2.85l0,.28a2.56,2.56,0,0,1-1.56,2,2.65,2.65,0,0,1,1.93,2.73c-.24,2.29-.74,3-1.15,3.37s-2.71.43-3.26.39l-.8,0-1.16,0Zm-1.28-.29,1.1.07.2-1.95h.1l1.26.06.8,0c.74.05,2.75,0,3.12-.34s.84-1,1.08-3.23c.12-1.17-.58-2.07-2-2.61l-.26-.09.26-.1a2.45,2.45,0,0,0,1.67-1.89l0-.28c.1-.82.25-2.06-.33-2.7s-1.45-1-3.5-1.14L141.8,32h-.1v-.1c0-.69.06-1.43.08-1.86l-1-.07c0,.38-.08,1-.15,1.87v.1l-1.41-.07v-.1c0-.69.07-1.44.09-1.88v0l-1-.07c0,.41-.09,1.05-.16,1.91v.1l-1.56-.08L136.46,33l1.49.15h.1l-.15,2c-.15,2.23-.3,4.33-.37,4.94,0,.4-.12,1.2-.22,2.43v.1l-1.86-.13-.15,1.4,1.78.09h.11v.1c-.07.82-.21,1.63-.26,1.95l1.18.08.22-2.05h.1a8.19,8.19,0,0,1,.87.1l.28.05h.09v.1c-.07.74-.13,1.48-.16,1.84Zm4.83-3.08c-.84,0-2.35-.09-3.28-.15h-.1v-.11c.07-.82.18-2.45.29-4.1v-.1h.1c1.66.1,2.66.18,3,.25l.16,0c.67.14,1.31.28,1.29,1.56s-.13,2.52-1,2.6h-.42Zm-3.16-.35c.95.07,3,.19,3.57.13s.8-1.18.82-2.4-.46-1.21-1.13-1.35l-.15,0c-.28-.06-1.26-.14-2.83-.24C141.33,40.45,141.23,42,141.15,42.8Zm-1.38.09h-.1l-1.12-.14h-.1v-.1c.08-.86.19-2.49.28-4v-.1h.1l1.19.06h.11v.1c-.06.79-.1,1.29-.13,1.54-.06.55-.16,1.67-.23,2.52Zm-1.09-.34.91.11c.07-.83.16-1.88.22-2.41,0-.24.06-.7.12-1.43l-1,0C138.85,40.17,138.75,41.69,138.68,42.55Zm5.15-5.14c-.56,0-1.39,0-2.4,0h-.11v-.1c.11-1.63.19-2.81.24-3.29h0c0-.18,0-.39.05-.62v-.09h.29a13.24,13.24,0,0,1,3.09.15c.6.17.71,1.3.63,2s-.2,1.94-1.28,2Zm-2.29-.26c1.37.05,2.39.07,2.81.05.83-.05,1-.92,1.09-1.81.07-.67,0-1.67-.49-1.8a13.85,13.85,0,0,0-3-.14h-.11c0,.2,0,.37,0,.53h0C141.72,34.44,141.64,35.58,141.54,37.15Zm-1.29.16h-.1l-1.21-.05h-.11v-.1c.1-1.48.19-2.85.25-3.36,0-.14,0-.3,0-.46v-.1h.12l1.16,0h.11Zm-1.2-.25,1,0,.26-3.63c-.41,0-.73,0-1,0,0,.13,0,.26,0,.37h0C139.24,34.31,139.15,35.62,139.05,37.06Z"/><path class="cls-16" d="M206.93,18.27a2.53,2.53,0,0,0,.82-2.5c-.24-.78-.58-2.26-1.5-2.68s-1.7-.39-3.75.32l-1.09.39c-.26-.7-.54-1.46-.69-1.84l-1.13.4c.12.39.34,1.07.62,1.88l-1.14.42c-.26-.71-.55-1.49-.7-1.88l-1.14.4c.13.4.36,1.08.64,1.91-.54.21-1.05.39-1.46.54l.43,1.39,1.53-.47c.9,2.61,2,5.75,2.22,6.51.14.46.44,1.37.75,2.33l-1.76.61.47,1.54,1.78-.65c.28.85.49,1.73.55,2l1.32-.46-.6-2c.36-.12.65-.2.83-.24l.27-.07.62,1.89,1.23-.43-.57-1.88c.78-.28,1.58-.6,1.92-.72.62-.21,2.56-1.07,2.8-1.59s.37-1.36-.27-3.47C209.59,18.82,208.6,18.18,206.93,18.27Zm-7.19-1.69-.14-.44h0c.3-.11.68-.26,1.1-.44.41,1.19.86,2.5,1.26,3.64l-1.13.43C200.33,18.34,199.89,17.07,199.74,16.58Zm2.9,8.38c-.26-.8-.78-2.27-1.3-3.77l1.12-.41c.23.68.4,1.21.48,1.46.15.48.45,1.42.78,2.41Zm-.55-9.19c-.05-.18-.11-.38-.19-.59A15.22,15.22,0,0,1,205,14c.54-.07,1,.87,1.26,1.53s.54,1.78-.35,2.22c-.42.2-1.5.64-2.71,1.1C202.67,17.48,202.24,16.25,202.09,15.77Zm6.37,7.14c-.54.29-2.48,1-3.44,1.32-.25-.79-.79-2.32-1.34-3.89,1.2-.43,2.45-.86,2.81-.93.75-.14,1.36-.35,1.84.84S209.14,22.55,208.46,22.91Z"/><path class="cls-16" d="M202.3,29l0-.11c-.06-.25-.25-1.07-.51-1.89l-1.68.61-.1,0-.54-1.74,1.76-.61c-.36-1.09-.6-1.84-.72-2.23-.18-.59-.86-2.58-1.59-4.69l-.59-1.72-1.44.44-.1,0-.48-1.58,1.45-.54c-.3-.89-.49-1.47-.6-1.82l0-.1,1.33-.46,0,.09.66,1.78,1-.34c-.29-.86-.48-1.44-.59-1.79l0-.09,1.33-.47.19.54.49,1.3,1-.36c2-.69,2.84-.76,3.82-.32s1.24,1.65,1.48,2.48c0,.1,0,.19.08.27a2.57,2.57,0,0,1-.67,2.42h0a2.6,2.6,0,0,1,2.8,1.75c.68,2.2.5,3.05.27,3.55s-2.33,1.46-2.85,1.64l-.75.28-1.09.41.58,1.88-1.42.49-.13-.38c-.11-.36-.3-.93-.49-1.51l-.19,0c-.14,0-.39.1-.72.21l.6,2Zm-.4-2.27,0,.1c.25.76.44,1.55.52,1.9l1.12-.39-.6-2,.1,0a7.37,7.37,0,0,1,.84-.24l.27-.07.09,0,0,.09c.2.62.41,1.23.53,1.61l.06.18,1-.36-.57-1.88.09,0,1.18-.45.75-.28c.7-.24,2.52-1.08,2.73-1.53s.38-1.26-.27-3.4c-.35-1.13-1.36-1.68-2.89-1.6l-.28,0,.2-.19a2.45,2.45,0,0,0,.79-2.4c0-.08-.05-.17-.08-.27-.23-.79-.58-2-1.36-2.35-.93-.42-1.72-.36-3.67.32l-1.1.4-.09,0,0-.09c-.18-.49-.37-1-.52-1.4l-.13-.35-.95.33c.12.37.32,1,.6,1.79l0,.09-1.33.49,0-.1c-.25-.66-.51-1.37-.67-1.78l-.95.33c.12.37.32.95.61,1.82l0,.1-1.46.53.37,1.2,1.43-.44.1,0,.65,1.91c.73,2.11,1.42,4.11,1.6,4.7.12.4.37,1.18.75,2.32l0,.1-1.76.61.41,1.34,1.68-.61Zm.67-1.66,0-.1c-.26-.8-.78-2.3-1.3-3.76l0-.1.09,0,1.12-.42.1,0,0,.1c.27.8.41,1.24.48,1.46.13.43.41,1.31.77,2.41l0,.1-.11,0-1.07.31Zm-1.1-3.84c.48,1.39,1,2.78,1.24,3.58l.87-.25c-.34-1.06-.61-1.89-.74-2.31-.06-.21-.2-.62-.45-1.36ZM205,24.36l0-.1c-.25-.77-.78-2.28-1.34-3.89l0-.09.1,0a28.69,28.69,0,0,1,2.83-.93l.15,0c.68-.13,1.32-.26,1.8.93s.87,2.38.09,2.79h0c-.54.28-2.4.95-3.46,1.33Zm-1.14-4c.53,1.51,1,2.91,1.27,3.7,1.07-.38,2.82-1,3.33-1.28s.27-1.41-.18-2.53-.9-.94-1.57-.81l-.16,0C206.22,19.56,205.29,19.87,203.81,20.4Zm-3-.5,0-.1c-.55-1.57-1-2.72-1.09-3.19h0c0-.13-.09-.28-.15-.44l0-.1.11,0c.26-.09.61-.23,1.09-.44l.1,0,0,.1.76,2.23.53,1.51-.1,0-1.13.42Zm-1-3.7.11.35h0c.14.46.52,1.56,1.06,3.08l.94-.35L201.38,18c-.24-.71-.49-1.43-.73-2.12C200.27,16,200,16.12,199.73,16.2ZM203.1,19l0-.1c-.46-1.31-.92-2.62-1.07-3.12h0l-.19-.59,0-.09.29-.12a13.56,13.56,0,0,1,2.88-1.07c.62-.09,1.17.92,1.37,1.6s.57,1.87-.39,2.34c-.39.19-1.38.59-2.72,1.11ZM202,15.23c.06.19.12.36.16.5h0c.15.48.59,1.74,1,3,1.28-.5,2.22-.88,2.6-1.07.81-.39.49-1.41.29-2.09s-.67-1.51-1.15-1.46a14.47,14.47,0,0,0-2.83,1Z"/><path class="cls-10" d="M158,254s-2.15-2.09.08-3.27a19.07,19.07,0,0,1,3.88-1.59l-9-2.47-7,2.88s2.46,7.4,2.87,7.4,7.41.83,7.41.83Z"/><path class="cls-14" d="M238.73,254s2.15-2.09-.08-3.27a19.07,19.07,0,0,0-3.88-1.59l9-2.47,7,2.88s-2.46,7.4-2.87,7.4-7.41.83-7.41.83Z"/></g></g></svg>