<svg xmlns="http://www.w3.org/2000/svg" viewBox="0 0 21.7 300" xmlns:v="https://vecta.io/nano" preserveAspectRatio="none"><path d="M0 0v12.1c.8-3.1 3-5.6 5.8-7C3.4 4 1.4 2.2 0 0zm15.9 5.1c2.8 1.4 4.9 4 5.8 7.1V0c-1.4 2.2-3.4 4-5.8 5.1zm5.8 13c-1.2 4.3-4.8 7.6-9.3 8.2 5.1.7 9 5.1 9 10.4a10.5 10.5 0 0 1-10.5 10.5C5 47.2.3 42.4.3 36.6c0-5.3 3.9-9.7 9-10.4-4.5-.6-8.2-3.9-9.3-8.2v282h21.7V18.1zM10.8 276.2c-1.1 0-2-.9-2-2s.9-2 2-2 2 .9 2 2-.9 2-2 2zm0-20.8c-1.6 0-2.9-1.3-2.9-2.9s1.3-2.9 2.9-2.9 2.9 1.3 2.9 2.9c0 1.7-1.3 2.9-2.9 2.9zm0-20.7c-2.1 0-3.7-1.7-3.7-3.7 0-2.1 1.7-3.7 3.7-3.7a3.76 3.76 0 0 1 3.7 3.7c.1 2.1-1.6 3.7-3.7 3.7zm0-20.7c-2.5 0-4.6-2.1-4.6-4.6s2.1-4.6 4.6-4.6 4.6 2.1 4.6 4.6c0 2.6-2 4.6-4.6 4.6zm0-20.7c-3 0-5.4-2.4-5.4-5.4s2.4-5.4 5.4-5.4 5.4 2.4 5.4 5.4c0 2.9-2.4 5.4-5.4 5.4zm0-20.7c-3.5 0-6.3-2.8-6.3-6.3s2.8-6.3 6.3-6.3 6.3 2.8 6.3 6.3-2.8 6.3-6.3 6.3zm0-21c-3.9 0-7-3.1-7-7s3.1-7 7-7 7 3.1 7 7c.1 3.9-3.1 7-7 7zm0-20.9c-4.2 0-7.7-3.4-7.7-7.7 0-4.2 3.4-7.7 7.7-7.7 4.2 0 7.7 3.4 7.7 7.7 0 4.2-3.4 7.7-7.7 7.7zm0-21a8.24 8.24 0 0 1-8.2-8.2 8.24 8.24 0 0 1 8.2-8.2 8.24 8.24 0 0 1 8.2 8.2c0 4.5-3.6 8.2-8.2 8.2zm0-20.9c-5 0-9.1-4.1-9.1-9.1s4.1-9.1 9.1-9.1 9.1 4.1 9.1 9.1-4 9.1-9.1 9.1zm0-20.8A9.82 9.82 0 0 1 1 58.2a9.86 9.86 0 0 1 9.9-9.9 9.86 9.86 0 0 1 9.9 9.9 9.99 9.99 0 0 1-10 9.8z"/><script xmlns=""/></svg>